<?xml version="1.0" encoding="utf-8"?>
<!-- Generator: Adobe Illustrator 23.0.3, SVG Export Plug-In . SVG Version: 6.00 Build 0)  -->
<svg version="1.1" id="Calque_1" xmlns="http://www.w3.org/2000/svg" xmlns:xlink="http://www.w3.org/1999/xlink" x="0px" y="0px"
	 viewBox="0 0 512 512" style="enable-background:new 0 0 512 512;" xml:space="preserve">
<style type="text/css">
	.st0{fill:#FBB03C;}
</style>
<g>
	<path class="st0" d="M428.7,49.9h-95.8v-7.2c0-13.5-11-24.5-24.5-24.5H203.6c-13.5,0-24.5,11-24.5,24.5v7.2H83.3c-3.9,0-7,3.1-7,7
		c0,0,0,0,0,0v429.9c0,3.9,3.1,7,7,7c0,0,0,0,0,0h345.4c3.9,0,7-3.1,7-7c0,0,0,0,0,0V56.9C435.7,53,432.6,49.9,428.7,49.9
		C428.7,49.9,428.7,49.9,428.7,49.9z M380.2,103.4v335.1H131.8V103.4H380.2z M193.1,42.7c0-5.8,4.7-10.5,10.5-10.5h104.8
		c5.8,0,10.5,4.7,10.5,10.5v46.6H193.1V42.7z M421.7,479.8H90.3V63.9h88.8v25.5h-54.2c-3.9,0-7,3.1-7,7v349.1c0,3.9,3.1,7,7,7l0,0
		h262.3c3.9,0,7-3.1,7-7c0,0,0,0,0,0V96.4c0-3.9-3.1-7-7-7c0,0,0,0,0,0h-54.2V63.9h88.8V479.8z"/>
	<path class="st0" d="M166.6,309.4h62.9c3.9,0,7-3.1,7-7c0,0,0,0,0,0V250l14.1-14.1c2.7-2.8,2.6-7.2-0.2-9.9c-2.7-2.6-7-2.6-9.7,0
		l-7.5,7.5c-1.1-0.7-2.4-1.1-3.7-1.1h-62.9c-3.9,0-7,3.1-7,7v62.9C159.6,306.2,162.7,309.4,166.6,309.4z M173.6,246.4h46.7
		l-22.2,22.2l-5.6-5.6c-2.8-2.7-7.2-2.6-9.9,0.2c-2.6,2.7-2.6,7,0,9.7l10.5,10.5c2.7,2.7,7.2,2.7,9.9,0c0,0,0,0,0,0l19.5-19.5v31.3
		h-48.9V246.4z"/>
	<path class="st0" d="M166.6,412.4h62.9c3.9,0,7-3.1,7-7c0,0,0,0,0,0V353l14.1-14.1c2.8-2.7,2.9-7.1,0.2-9.9
		c-2.7-2.8-7.1-2.9-9.9-0.2c-0.1,0.1-0.1,0.1-0.2,0.2l-7.5,7.5c-1.1-0.7-2.4-1.1-3.7-1.1h-62.9c-3.9,0-7,3.1-7,7v62.9
		C159.6,409.2,162.7,412.4,166.6,412.4L166.6,412.4z M173.6,349.4h46.7l-22.2,22.2l-5.6-5.6c-2.8-2.7-7.2-2.6-9.9,0.2
		c-2.6,2.7-2.6,7,0,9.7l10.5,10.5c2.7,2.7,7.2,2.7,9.9,0c0,0,0,0,0,0l19.5-19.5v31.3h-48.9V349.4z"/>
	<path class="st0" d="M166.6,206.4h62.9c3.9,0,7-3.1,7-7c0,0,0,0,0,0V147l14.1-14.1c2.7-2.8,2.6-7.2-0.2-9.9c-2.7-2.6-7-2.6-9.7,0
		l-7.5,7.5c-1.1-0.7-2.4-1.1-3.7-1.1h-62.9c-3.9,0-7,3.1-7,7v62.9C159.6,203.2,162.7,206.4,166.6,206.4z M173.6,143.4h46.7
		l-22.2,22.2l-5.6-5.6c-2.7-2.8-7.1-2.9-9.9-0.2c-2.8,2.7-2.9,7.1-0.2,9.9c0.1,0.1,0.1,0.1,0.2,0.2l10.5,10.5c2.7,2.7,7.2,2.7,9.9,0
		c0,0,0,0,0,0l19.5-19.5v31.3h-48.9V143.4z"/>
	<path class="st0" d="M262.6,174.9h82.8c3.9,0,7-3.1,7-7s-3.1-7-7-7h-82.8c-3.9,0-7,3.1-7,7S258.7,174.9,262.6,174.9z"/>
	<path class="st0" d="M262.6,277.9h82.8c3.9,0,7-3.1,7-7s-3.1-7-7-7h-82.8c-3.9,0-7,3.1-7,7S258.7,277.9,262.6,277.9z"/>
	<path class="st0" d="M262.6,380.9h82.8c3.9,0,7-3.1,7-7s-3.1-7-7-7h-82.8c-3.9,0-7,3.1-7,7S258.7,380.9,262.6,380.9z"/>
</g>
</svg>
