<?xml version="1.0" encoding="utf-8"?>
<!-- Generator: Adobe Illustrator 23.0.3, SVG Export Plug-In . SVG Version: 6.00 Build 0)  -->
<svg version="1.1" id="Calque_1" xmlns="http://www.w3.org/2000/svg" xmlns:xlink="http://www.w3.org/1999/xlink" x="0px" y="0px"
	 viewBox="0 0 512 512" style="enable-background:new 0 0 512 512;" xml:space="preserve">
<style type="text/css">
	.st0{fill:#FBB03C;}
</style>
<g id="Page-1">
	<g>
		<path id="Shape" class="st0" d="M453.8,340.8c15.5-15.8,24.1-37.1,24.1-59.2c-0.1-34.3-20.6-65.2-52.2-78.6
			c9.2-21.8,11.7-45.9,7.3-69.1c23.8-13.8,36.4-30.5,36.4-48.6C469.3,37.5,375.6,0,256,0S42.7,37.5,42.7,85.3
			c0,18,12.6,34.8,36.4,48.6c-4.5,23.2-2,47.3,7.3,69.1c-31.5,13.4-52,44.3-52.2,78.5c0,22.1,8.6,43.4,24.1,59.2
			C22.2,362.4,0.1,401.2,0,443.1v20c0,12.9,10.4,23.3,23.3,23.3h96.2c0,14.1,11.5,25.6,25.6,25.6h221.9c14.1,0,25.6-11.5,25.6-25.6
			h96.2c12.9,0,23.3-10.4,23.3-23.3v-20C511.9,401.2,489.8,362.4,453.8,340.8L453.8,340.8z M460.8,281.6c0,27.3-16.2,52-41.3,62.7
			c-25.1,10.8-54.2,5.6-73.9-13.2c17-30.8,17-68.2,0-99c12.5-12.1,29.2-18.8,46.6-18.7c2.4,6.4,3.5,10.6,3.5,10.7
			c0.8,3.1,3.3,5.4,6.4,6.1c3.1,0.7,6.3-0.4,8.4-2.8c2.4-2.9,4.7-6,6.8-9.1C443.4,228.5,460.7,253.6,460.8,281.6L460.8,281.6z
			 M256,366.9c-42.5,0.1-78.5-31.1-84.5-73.2c-6-42,19.8-82.1,60.6-93.9l16.6,26.6c1.6,2.5,4.3,4,7.3,4s5.7-1.5,7.3-4l16.6-26.6
			c40.8,11.9,66.6,51.9,60.6,93.9S298.5,367,256,366.9z M176,217.7c-13.6-12.1-30.8-19.5-49-21.1c6.5-14.1,16.3-26.4,28.7-35.7
			c18.8,3.9,37.9,6.5,57.1,8l9.9,15.9C204.4,191.1,188.1,202.5,176,217.7L176,217.7z M336,217.7c-12.2-15.2-28.4-26.6-46.8-32.9
			l9.9-15.9c19.2-1.4,38.3-4.1,57.2-8c12.4,9.4,22.2,21.6,28.7,35.7C366.8,198.2,349.7,205.6,336,217.7L336,217.7z M59.7,85.3
			c0-32.3,80.6-68.3,196.3-68.3s196.3,36,196.3,68.3c0,12.5-11.7,25.5-33,36.6c-3.5,1.8-5.3,5.8-4.3,9.7c6.2,24.1,3.2,49.6-8.3,71.6
			l-0.6-1.4c-7.5-18.4-20.7-42.7-41.8-56c-2.1-2.1-5.1-3-7.9-2.3c-20.7,4.5-41.7,7.4-62.8,8.8c-2.9,0.2-5.5,1.9-6.8,4.5L256,205.8
			L225.5,157c-1.3-2.7-4-4.6-7.1-4.8c-21.1-1.4-42.1-4.4-62.8-8.8c-2.7-0.6-5.5,0.2-7.5,2c-21.3,13.2-34.7,37.8-42.2,56.3l-0.6,1.4
			c-11.5-22-14.5-47.5-8.3-71.6c1-3.8-0.8-7.8-4.3-9.7C71.4,110.8,59.7,97.8,59.7,85.3L59.7,85.3z M94.6,218.3
			c2.1,3.2,4.4,6.2,6.8,9.1c2.1,2.4,5.3,3.5,8.4,2.8c3.1-0.7,5.5-3,6.4-6.1c0-0.1,1.2-4.3,3.5-10.7c17.4-0.1,34.1,6.6,46.7,18.7
			c-17,30.8-17,68.2,0,99c-12.7,12-29.5,18.8-46.9,18.8c-37.7,0-68.2-30.6-68.3-68.3C51.3,253.6,68.5,228.5,94.6,218.3L94.6,218.3z
			 M76.8,469.3v-25.6c0-4.7-3.8-8.5-8.5-8.5s-8.5,3.8-8.5,8.5v25.6H23.3c-3.4,0-6.2-2.8-6.2-6.2v-20c0.1-38.1,21.3-73,55.1-90.6
			c32.2,21.6,74.9,18.6,103.9-7.2c3.9,4.9,8.3,9.5,13,13.6c-40.3,22.7-66.4,64.2-69.3,110.4L76.8,469.3z M375.5,486.4
			c0,4.7-3.8,8.5-8.5,8.5h-42.7v-34.1c0-4.7-3.8-8.5-8.5-8.5c-4.7,0-8.5,3.8-8.5,8.5v34.1H204.8v-34.1c0-4.7-3.8-8.5-8.5-8.5
			s-8.5,3.8-8.5,8.5v34.1h-42.7c-4.7,0-8.5-3.8-8.5-8.5v-8.5c0-46,26.5-88,68.1-107.8c31.7,18.5,71,18.5,102.7,0
			c12.3,5.8,23.5,13.7,33.1,23.3c22.5,22.3,35.1,52.7,35,84.4L375.5,486.4z M494.9,463.1c0,3.4-2.8,6.2-6.2,6.2h-36.4v-25.6
			c0-4.7-3.8-8.5-8.5-8.5c-4.7,0-8.5,3.8-8.5,8.5v25.6h-43.1c-2.9-46.1-28.9-87.7-69.1-110.4c4.7-4.1,9.1-8.6,13-13.6
			c28.9,25.8,71.7,28.8,103.9,7.2c33.8,17.6,55,52.5,55.1,90.6L494.9,463.1z"/>
		<path class="st0" d="M256,110.9c14.1,0,25.6-11.5,25.6-25.6S270.1,59.7,256,59.7c-14.1,0-25.6,11.5-25.6,25.6
			S241.9,110.9,256,110.9z M256,76.8c4.7,0,8.5,3.8,8.5,8.5s-3.8,8.5-8.5,8.5c-4.7,0-8.5-3.8-8.5-8.5S251.3,76.8,256,76.8z"/>
		<path class="st0" d="M179.2,110.9c14.1,0,25.6-11.5,25.6-25.6s-11.5-25.6-25.6-25.6c-14.1,0-25.6,11.5-25.6,25.6
			S165.1,110.9,179.2,110.9z M179.2,76.8c4.7,0,8.5,3.8,8.5,8.5s-3.8,8.5-8.5,8.5s-8.5-3.8-8.5-8.5S174.5,76.8,179.2,76.8z"/>
		<path class="st0" d="M332.8,110.9c14.1,0,25.6-11.5,25.6-25.6s-11.5-25.6-25.6-25.6s-25.6,11.5-25.6,25.6S318.7,110.9,332.8,110.9
			z M332.8,76.8c4.7,0,8.5,3.8,8.5,8.5s-3.8,8.5-8.5,8.5s-8.5-3.8-8.5-8.5S328.1,76.8,332.8,76.8z"/>
	</g>
</g>
</svg>
