<?xml version="1.0" encoding="utf-8"?>
<!-- Generator: Adobe Illustrator 23.0.3, SVG Export Plug-In . SVG Version: 6.00 Build 0)  -->
<svg version="1.1" id="light" xmlns="http://www.w3.org/2000/svg" xmlns:xlink="http://www.w3.org/1999/xlink" x="0px" y="0px"
	 viewBox="0 0 512 512" style="enable-background:new 0 0 512 512;" xml:space="preserve">
<style type="text/css">
	.st0{fill:#FBB03C;}
</style>
<path class="st0" d="M13.2,426.7c-1.7,0-2.7,0-2.8,0c-5.9-0.2-10.5-5.1-10.4-11c0.2-5.9,5.4-10.1,11-10.4c3.4,0,365.9,6.4,448-312
	c1.5-5.7,7.3-9.1,13-7.7c5.7,1.5,9.1,7.3,7.7,13C397.2,418.3,48.4,426.7,13.2,426.7L13.2,426.7z"/>
<path class="st0" d="M501.3,162.1c-3.7,0-7.3-1.9-9.3-5.3l-26.7-46.2l-46.2,26.7c-5.1,2.9-11.6,1.2-14.6-3.9
	c-2.9-5.1-1.2-11.6,3.9-14.6l55.4-32c5.1-3,11.6-1.2,14.6,3.9l32,55.4c2.9,5.1,1.2,11.6-3.9,14.6C505,161.6,503.1,162.1,501.3,162.1
	z"/>
<path class="st0" d="M458.7,512c-5.9,0-10.7-4.8-10.7-10.7V224c0-5.9,4.8-10.7,10.7-10.7c5.9,0,10.7,4.8,10.7,10.7v277.3
	C469.3,507.2,464.6,512,458.7,512z"/>
<path class="st0" d="M330.7,512c-5.9,0-10.7-4.8-10.7-10.7v-128c0-5.9,4.8-10.7,10.7-10.7s10.7,4.8,10.7,10.7v128
	C341.3,507.2,336.6,512,330.7,512z"/>
<path class="st0" d="M202.7,512c-5.9,0-10.7-4.8-10.7-10.7v-64c0-5.9,4.8-10.7,10.7-10.7s10.7,4.8,10.7,10.7v64
	C213.3,507.2,208.6,512,202.7,512z"/>
<path class="st0" d="M74.7,512c-5.9,0-10.7-4.8-10.7-10.7v-32c0-5.9,4.8-10.7,10.7-10.7s10.7,4.8,10.7,10.7v32
	C85.3,507.2,80.6,512,74.7,512z"/>
<path class="st0" d="M202.7,277.3h-192c-5.9,0-10.7-4.8-10.7-10.7v-25C0,227.4,5.5,214,15.6,204l27.1-27.1v-60.6
	c0-25.7,8.6-51.1,24.3-71.6L98.2,4.2c4-5.2,12.9-5.2,16.9,0l31.2,40.6c15.7,20.4,24.3,45.8,24.3,71.6v60.6l27.1,27.1
	c10.1,10.1,15.6,23.5,15.6,37.7v25C213.3,272.6,208.6,277.3,202.7,277.3L202.7,277.3z M21.3,256H192v-14.3c0-8.6-3.3-16.6-9.4-22.6
	l-30.2-30.2c-2-2-3.1-4.7-3.1-7.6v-65c0-21.1-7.1-41.8-19.9-58.5l-22.7-29.6L83.9,57.7C71.1,74.4,64,95.2,64,116.3v65
	c0,2.8-1.1,5.5-3.1,7.6l-30.2,30.2c-6.1,6-9.4,14.1-9.4,22.6V256z"/>
<path class="st0" d="M160,320c-5.9,0-10.7-4.8-10.7-10.7v-42.7c0-5.9,4.8-10.7,10.7-10.7s10.7,4.8,10.7,10.7v42.7
	C170.7,315.2,165.9,320,160,320z"/>
<path class="st0" d="M53.3,320c-5.9,0-10.7-4.8-10.7-10.7v-42.7c0-5.9,4.8-10.7,10.7-10.7S64,260.8,64,266.7v42.7
	C64,315.2,59.2,320,53.3,320z"/>
</svg>
