<?xml version="1.0" encoding="utf-8"?>
<!-- Generator: Adobe Illustrator 23.0.3, SVG Export Plug-In . SVG Version: 6.00 Build 0)  -->
<svg version="1.1" id="Layer_1" xmlns="http://www.w3.org/2000/svg" xmlns:xlink="http://www.w3.org/1999/xlink" x="0px" y="0px"
	 viewBox="0 0 512 512" style="enable-background:new 0 0 512 512;" xml:space="preserve">
<style type="text/css">
	.st0{fill:#FBB03C;}
</style>
<g>
	<g>
		<path class="st0" d="M403.6,125c-17.4-8.7-50.1-8.8-51.5-8.8c-4.1,0-7.5,3.4-7.5,7.5s3.4,7.5,7.5,7.5c8.4,0,32.9,1.3,44.7,7.2
			c1.1,0.5,2.2,0.8,3.3,0.8c2.8,0,5.4-1.5,6.7-4.1C408.9,131.4,407.4,126.9,403.6,125z"/>
	</g>
</g>
<g>
	<g>
		<path class="st0" d="M504.5,348.7h-45.3c3-4.8,4.7-10.5,4.7-16.5v-70c0-14-9.4-26.5-22.9-30.3l-27-7.7c-3.6-1-6.2-4.4-6.2-8.2
			l0-6.3c2.5-1.7,4.9-3.7,7.2-5.9c10.9-10.6,16.9-24.7,16.9-39.9v-14.3l3-6c3.3-6.6,5-13.9,5-21.3V83.7c0-4.1-3.4-7.5-7.5-7.5h-72.1
			c-26.2,0-47.6,21.3-47.6,47.6v0.4c0,6.1,1.4,12.2,4.2,17.7l3.8,7.7v12.2c0,19.4,9.6,36.8,24,47.3v6.8c0,3.8-2.5,7.2-6.2,8.2
			l-27,7.7c-13.5,3.8-22.9,16.3-22.9,30.3v6.4h-0.5c-8.6,0-15.5,7-15.5,15.5v64.1c0,0.2,0,0.3,0,0.5h-37.8c3-4.8,4.7-10.5,4.7-16.5
			v-70c0-14-9.4-26.5-22.9-30.3l-27-7.7c-0.3-0.1-0.6-0.2-0.8-0.3c12.8-2.5,23.3-5.8,30-8.2c3.9-1.4,7-4.2,8.8-8
			c1.8-3.7,2-7.9,0.6-11.7c-6.6-18.3-11.6-48.9-12.7-63.9c-2.6-36.4-29.9-63.8-63.6-63.8c-33.7,0-61,27.4-63.6,63.8
			c-1.1,15.1-6,45.7-12.7,63.9c-1.4,3.8-1.2,8,0.6,11.7c1.8,3.8,4.9,6.6,8.8,8c6.7,2.4,17.2,5.7,30,8.2c-0.3,0.1-0.6,0.2-0.9,0.3
			l-27,7.7c-13.5,3.8-22.9,16.3-22.9,30.3v70c0,6.1,1.7,11.7,4.7,16.5H7.5c-4.1,0-7.5,3.4-7.5,7.5s3.4,7.5,7.5,7.5H16v72.7
			c0,4.1,3.4,7.5,7.5,7.5s7.5-3.4,7.5-7.5v-40.6h65.2v40.6c0,4.1,3.4,7.5,7.5,7.5s7.5-3.4,7.5-7.5v-24.6h81.2v24.6
			c0,4.1,3.4,7.5,7.5,7.5s7.5-3.4,7.5-7.5v-40.6H481v40.6c0,4.1,3.4,7.5,7.5,7.5s7.5-3.4,7.5-7.5v-72.7h8.5c4.1,0,7.5-3.4,7.5-7.5
			C512,352.1,508.6,348.7,504.5,348.7z M335.6,161.8v-14c0-1.2-0.3-2.3-0.8-3.4l-4.6-9.3c-1.7-3.4-2.6-7.2-2.6-11v-0.4
			c0-18,14.6-32.6,32.6-32.6h64.6v31.1c0,5-1.2,10.1-3.4,14.6l-3.8,7.6c-0.5,1-0.8,2.2-0.8,3.4v16c0,11.1-4.4,21.4-12.3,29.1
			c-7.9,7.7-18.4,11.8-29.5,11.4C353.3,203.7,335.6,184.6,335.6,161.8z M394.1,223.5l-6.2,6.2c-3.1,3.1-7.3,4.8-11.7,4.8
			c-4.4,0-8.6-1.7-11.7-4.8l-6.2-6.2c0.8-2.2,1.2-4.4,1.3-6.8c4.7,1.6,9.7,2.5,14.9,2.6c0.6,0,1.2,0,1.7,0c5.7,0,11.3-0.9,16.6-2.5
			C392.9,219.2,393.4,221.4,394.1,223.5z M303.6,262.1L303.6,262.1c0-7.4,4.9-13.9,12-15.9l27-7.7c2.3-0.7,4.5-1.7,6.5-3l4.8,4.8
			c6,6,13.9,9.2,22.3,9.2s16.4-3.3,22.3-9.2l4.8-4.8c2,1.3,4.1,2.3,6.5,3l27,7.7c7.1,2,12,8.6,12,15.9v70c0,9.1-7.4,16.5-16.5,16.5
			h-32.6c0-0.2,0-0.3,0-0.5v-16.5h24.6c4.1,0,7.5-3.4,7.5-7.5V276c0-4.1-3.4-7.5-7.5-7.5s-7.5,3.4-7.5,7.5v40.6h-17.1v-32.6
			c0-8.6-7-15.5-15.5-15.5h-80.7V262.1z M287.5,284.1c0-0.3,0.2-0.5,0.5-0.5h96.2c0.3,0,0.5,0.2,0.5,0.5v64.1c0,0.3-0.2,0.5-0.5,0.5
			h-96.2c-0.3,0-0.5-0.2-0.5-0.5V284.1z M89.9,201.4c-0.2-0.1-0.2-0.2-0.3-0.3c-0.1-0.1,0-0.2,0-0.2c7.1-19.6,12.4-52.1,13.5-68
			c1-13.7,6.4-26.3,15.2-35.5c9-9.4,20.6-14.4,33.4-14.4c12.9,0,24.4,5,33.4,14.4c8.8,9.2,14.2,21.8,15.2,35.5
			c1.1,15.9,6.4,48.4,13.5,68c0,0,0,0.1,0,0.2c0,0.1-0.1,0.2-0.3,0.3c-11.5,4.1-34.8,11-61.8,11C124.7,212.4,101.4,205.5,89.9,201.4
			z M96.2,380.8H31v-17.1h65.2V380.8z M111.2,396.8V292.1c0-4.7,3.8-8.5,8.5-8.5h64.1c4.7,0,8.5,3.8,8.5,8.5v104.7H111.2z
			 M183.9,268.5h-64.1c-13,0-23.5,10.6-23.5,23.5v56.6h-0.5c-9.1,0-16.5-7.4-16.5-16.5v-70c0-7.4,4.9-13.9,12-15.9l27-7.7
			c6.5-1.8,11.7-6.3,14.6-12.1c6.1,0.6,12.4,1,19,1c6.6,0,13-0.4,19.1-1c2.9,5.8,8.1,10.2,14.5,12.1l27,7.7c7.1,2,12,8.6,12,15.9v70
			c0,9.1-7.4,16.5-16.5,16.5h-0.5v-56.6C207.4,279.1,196.8,268.5,183.9,268.5z M207.4,380.8v-17.1h0.5H481v17.1H207.4z"/>
	</g>
</g>
<g>
	<g>
		<circle class="st0" cx="336" cy="316" r="7.5"/>
	</g>
</g>
</svg>
