<?xml version="1.0" encoding="utf-8"?>
<!-- Generator: Adobe Illustrator 23.0.3, SVG Export Plug-In . SVG Version: 6.00 Build 0)  -->
<svg version="1.1" id="Capa_1" xmlns="http://www.w3.org/2000/svg" xmlns:xlink="http://www.w3.org/1999/xlink" x="0px" y="0px"
	 viewBox="0 0 512 512" style="enable-background:new 0 0 512 512;" xml:space="preserve">
<style type="text/css">
	.st0{fill:#FBB03C;}
</style>
<g>
	<path class="st0" d="M331,256c0-8.3-6.7-15-15-15c-24.8,0-45-20.2-45-45c0-8.3-6.7-15-15-15s-15,6.7-15,15c0,24.8-20.2,45-45,45
		c-8.3,0-15,6.7-15,15s6.7,15,15,15c24.8,0,45,20.2,45,45c0,8.3,6.7,15,15,15s15-6.7,15-15c0-24.8,20.2-45,45-45
		C324.3,271,331,264.3,331,256z M256,271.1c-4.3-5.7-9.4-10.8-15.1-15.1c5.7-4.3,10.8-9.4,15.1-15.1c4.3,5.7,9.4,10.8,15.1,15.1
		C265.4,260.3,260.3,265.4,256,271.1z"/>
	<path class="st0" d="M256,151c8.3,0,15-6.7,15-15V15c0-8.3-6.7-15-15-15s-15,6.7-15,15v121C241,144.3,247.7,151,256,151z"/>
	<path class="st0" d="M256,361c-8.3,0-15,6.7-15,15v121c0,8.3,6.7,15,15,15s15-6.7,15-15V376C271,367.7,264.3,361,256,361z"/>
	<path class="st0" d="M174.7,94.7l22.5,55.6c3.1,7.7,11.9,11.4,19.5,8.3c7.7-3.1,11.4-11.8,8.3-19.5l-22.5-55.6
		c-3.1-7.7-11.8-11.4-19.5-8.3C175.3,78.3,171.6,87,174.7,94.7z"/>
	<path class="st0" d="M337.3,417.3l-22.5-55.6c-3.1-7.7-11.9-11.4-19.5-8.3c-7.7,3.1-11.4,11.8-8.3,19.5l22.5,55.6
		c3.1,7.7,11.9,11.4,19.5,8.3C336.7,433.7,340.4,425,337.3,417.3z"/>
	<path class="st0" d="M160.5,181.8c5.9,5.9,15.4,5.9,21.2,0s5.9-15.4,0-21.2L96.9,75.7c-5.9-5.9-15.4-5.9-21.2,0s-5.9,15.4,0,21.2
		L160.5,181.8z"/>
	<path class="st0" d="M351.5,330.2c-5.9-5.9-15.4-5.9-21.2,0s-5.9,15.4,0,21.2l84.9,84.9c5.9,5.9,15.4,5.9,21.2,0s5.9-15.4,0-21.2
		L351.5,330.2z"/>
	<path class="st0" d="M151,256c0-8.3-6.7-15-15-15H15c-8.3,0-15,6.7-15,15s6.7,15,15,15h121C144.3,271,151,264.3,151,256z"/>
	<path class="st0" d="M497,241H376c-8.3,0-15,6.7-15,15s6.7,15,15,15h121c8.3,0,15-6.7,15-15S505.3,241,497,241z"/>
	<path class="st0" d="M181.8,330.2c-5.9-5.9-15.4-5.9-21.2,0l-84.9,84.9c-5.9,5.9-5.9,15.4,0,21.2c5.9,5.9,15.4,5.9,21.2,0
		l84.9-84.9C187.6,345.6,187.6,336.1,181.8,330.2z"/>
	<path class="st0" d="M330.2,181.8c5.9,5.9,15.4,5.9,21.2,0l84.9-84.9c5.9-5.9,5.9-15.4,0-21.2c-5.9-5.9-15.4-5.9-21.2,0l-84.9,84.9
		C324.4,166.4,324.4,175.9,330.2,181.8z"/>
	<path class="st0" d="M340.3,464.6c-7.7,3.1-11.4,11.8-8.3,19.5s11.8,11.4,19.5,8.3s11.4-11.8,8.3-19.5S348,461.5,340.3,464.6z"/>
	<ellipse class="st0" cx="166.1" cy="33.5" rx="15" ry="15"/>
	<path class="st0" d="M151.4,195.3l-55.2-23.4c-7.6-3.2-16.4,0.3-19.7,7.9s0.3,16.4,7.9,19.7l55.2,23.4c7.6,3.2,16.4-0.3,19.7-7.9
		C162.6,207.3,159,198.5,151.4,195.3z"/>
	<path class="st0" d="M360.6,316.7l55.2,23.4c7.6,3.2,16.4-0.3,19.7-7.9c3.2-7.6-0.3-16.4-7.9-19.7l-55.2-23.4
		c-7.6-3.2-16.4,0.3-19.7,7.9S353,313.5,360.6,316.7z"/>
	<ellipse class="st0" cx="476.8" cy="349.5" rx="15" ry="15"/>
	<ellipse class="st0" cx="35.1" cy="162.2" rx="15" ry="15"/>
	<path class="st0" d="M139.1,287l-55.6,22.5c-7.7,3.1-11.4,11.8-8.3,19.5c3.1,7.7,11.9,11.4,19.5,8.3l55.6-22.5
		c7.7-3.1,11.4-11.8,8.3-19.5C155.5,287.7,146.8,283.9,139.1,287L139.1,287z"/>
	<path class="st0" d="M372.9,225l55.6-22.5c7.7-3.1,11.4-11.8,8.3-19.5c-3.1-7.7-11.9-11.4-19.5-8.3l-55.6,22.5
		c-7.7,3.1-11.4,11.8-8.3,19.5C356.5,224.4,365.2,228.1,372.9,225L372.9,225z"/>
	<path class="st0" d="M484.1,180c7.7-3.1,11.4-11.8,8.3-19.5s-11.8-11.4-19.5-8.3s-11.4,11.8-8.3,19.5
		C467.7,179.4,476.5,183.1,484.1,180L484.1,180z"/>
	<path class="st0" d="M27.9,332c-7.7,3.1-11.4,11.8-8.3,19.5s11.8,11.4,19.5,8.3s11.4-11.8,8.3-19.5C44.3,332.6,35.5,328.9,27.9,332
		z"/>
	<path class="st0" d="M215,352.7c-7.6-3.2-16.4,0.3-19.7,7.9l-23.4,55.2c-3.2,7.6,0.3,16.4,7.9,19.7c7.6,3.2,16.4-0.3,19.7-7.9
		l23.4-55.2C226.2,364.7,222.6,355.9,215,352.7z"/>
	<path class="st0" d="M297,159.3c7.6,3.2,16.4-0.3,19.7-7.9l23.4-55.2c3.2-7.6-0.3-16.4-7.9-19.7c-7.6-3.2-16.4,0.3-19.7,7.9
		l-23.4,55.2C285.8,147.3,289.4,156.1,297,159.3L297,159.3z"/>
	<path class="st0" d="M343.9,48.9c7.6,3.2,16.4-0.3,19.7-7.9c3.2-7.6-0.3-16.4-7.9-19.7s-16.4,0.3-19.7,7.9
		C332.7,36.8,336.3,45.6,343.9,48.9z"/>
	<path class="st0" d="M168.1,463.1c-7.6-3.2-16.4,0.3-19.7,7.9c-3.2,7.6,0.3,16.4,7.9,19.7s16.4-0.3,19.7-7.9
		C179.3,475.2,175.7,466.4,168.1,463.1L168.1,463.1z"/>
</g>
</svg>
