<?xml version="1.0" encoding="utf-8"?>
<!-- Generator: Adobe Illustrator 23.0.3, SVG Export Plug-In . SVG Version: 6.00 Build 0)  -->
<svg version="1.1" id="Capa_1" xmlns="http://www.w3.org/2000/svg" xmlns:xlink="http://www.w3.org/1999/xlink" x="0px" y="0px"
	 viewBox="0 0 512 512" style="enable-background:new 0 0 512 512;" xml:space="preserve">
<style type="text/css">
	.st0{fill:#FBB03C;}
</style>
<g>
	<path class="st0" d="M328,377h-80c-8.3,0-15,6.7-15,15s6.7,15,15,15h80c8.3,0,15-6.7,15-15S336.3,377,328,377z"/>
	<path class="st0" d="M248,343h56c8.3,0,15-6.7,15-15s-6.7-15-15-15h-56c-8.3,0-15,6.7-15,15S239.7,343,248,343z"/>
	<path class="st0" d="M512,160c0-65.6-53.4-119-119-119c-52,0-96.2,33.5-112.4,80H45c-24.8,0-45,20.2-45,45v260
		c0,24.8,20.2,45,45,45h373c24.8,0,45-20.2,45-45V256.2C492.7,234.5,512,199.5,512,160L512,160z M393,71c49.1,0,89,39.9,89,89
		s-39.9,89-89,89s-89-39.9-89-89S343.9,71,393,71z M433,426c0,8.3-6.7,15-15,15H45c-8.3,0-15-6.7-15-15V166c0-8.3,6.7-15,15-15
		h229.3c-0.2,3-0.3,6-0.3,9c0,65.6,53.4,119,119,119c14,0,27.5-2.4,40-6.9V426z"/>
	<path class="st0" d="M363.6,190.7c2.3,4.5,6.7,7.6,11.7,8.2c0.6,0.1,1.2,0.1,1.7,0.1c4.4,0,8.7-2,11.5-5.4l40-48
		c5.3-6.4,4.4-15.8-1.9-21.1c-6.4-5.3-15.8-4.4-21.1,1.9l-25.3,30.4l-5.7-11.5c-3.7-7.4-12.7-10.4-20.1-6.7
		c-7.4,3.7-10.4,12.7-6.7,20.1L363.6,190.7z"/>
	<path class="st0" d="M167.1,302.6c9.8-9.9,15.9-23.6,15.9-38.6c0-30.3-24.7-55-55-55s-55,24.7-55,55c0,15.1,6.1,28.7,15.9,38.6
		C74.4,314.2,65,332,65,352v40c0,8.3,6.7,15,15,15h96c8.3,0,15-6.7,15-15v-40C191,332,181.6,314.2,167.1,302.6z M103,264
		c0-13.8,11.2-25,25-25s25,11.2,25,25s-11.2,25-25,25S103,277.8,103,264z M161,377H95v-25c0-18.2,14.8-33,33-33s33,14.8,33,33V377z"
		/>
</g>
</svg>
