<?xml version="1.0" encoding="utf-8"?>
<!-- Generator: Adobe Illustrator 23.0.3, SVG Export Plug-In . SVG Version: 6.00 Build 0)  -->
<svg version="1.1" id="Capa_1" xmlns="http://www.w3.org/2000/svg" xmlns:xlink="http://www.w3.org/1999/xlink" x="0px" y="0px"
	 viewBox="0 0 512 512" style="enable-background:new 0 0 512 512;" xml:space="preserve">
<style type="text/css">
	.st0{fill:#FBB03C;}
</style>
<g>
	<path class="st0" d="M414.2,366c-11.3,0-21.2,8.1-23.4,19.2c-0.8,4.1,1.8,8,5.9,8.8c4.1,0.8,8-1.9,8.8-5.9c0.8-4.1,4.4-7.1,8.6-7.1
		c4.9,0,8.8,3.9,8.8,8.8s-3.9,8.8-8.8,8.8c-4.1,0-7.5,3.4-7.5,7.5s3.4,7.5,7.5,7.5c4.9,0,8.8,3.9,8.8,8.8s-3.9,8.8-8.8,8.8
		c-4.8,0-8.8-4-8.8-8.8c0-4.1-3.4-7.5-7.5-7.5s-7.5,3.4-7.5,7.5c0,12.9,10.8,23.8,23.8,23.8c13.1,0,23.8-10.7,23.8-23.8
		c0-6.3-2.5-12-6.5-16.3c4-4.3,6.5-10,6.5-16.3C438,376.7,427.3,366,414.2,366L414.2,366z M120.1,367.4c0-13.1-10.7-23.8-23.8-23.8
		c-11.3,0-21.2,8.1-23.4,19.2c-0.8,4.1,1.8,8,5.9,8.8c4.1,0.8,8-1.9,8.8-5.9c0.8-4.1,4.4-7.1,8.6-7.1c4.7,0,8.6,3.7,8.8,8.4
		c0.2,4.5-2.3,7.5-5.7,12.4c-10.1,14.4-16.1,22.3-19.3,26.5c-4,5.3-5.9,7.7-4.6,11.9c0.8,2.4,2.6,4.3,5.1,5.1
		c3.2,1.1,24.5,0.6,34.9,0.5c4.1-0.1,7.5-3.5,7.4-7.6c-0.1-4.1-3.4-7.4-7.5-7.4c0,0-0.1,0-0.1,0c-6.2,0.1-12.8,0.1-18.4,0.1
		c3.5-4.7,8.3-11.3,14.8-20.5C116.5,381.2,120.1,374.4,120.1,367.4L120.1,367.4z M262.8,284.3h-13.6c-4.1,0-7.5,3.4-7.5,7.5
		s3.4,7.5,7.5,7.5h6.1v56.2c0,4.1,3.4,7.5,7.5,7.5s7.5-3.4,7.5-7.5v-63.7C270.3,287.6,266.9,284.3,262.8,284.3z M497,458.1v-91.4
		c0-15.2-12.3-27.5-27.5-27.5h-26.3c-4.1,0-7.5,3.4-7.5,7.5s3.4,7.5,7.5,7.5h26.3c6.9,0,12.5,5.6,12.5,12.5V458H346.3v-91.3
		c0-6.9,5.6-12.5,12.5-12.5h54.3c4.1,0,7.5-3.4,7.5-7.5s-3.4-7.5-7.5-7.5h-54.3c-4.5,0-8.7,1.1-12.5,3V201.7
		c0-15.2-12.3-27.5-27.5-27.5h-10.6V157c0-10.5-8.6-19.1-19.1-19.1h-8.2v-27.7c5.2-5.4,9.9-11.3,14.1-17.6
		c22.2-0.9,42.6-14.1,52.4-34.1l10.9-22.2c2.1-4.3,1.8-9.3-0.7-13.3c-2.5-4-6.9-6.5-11.7-6.5h-29.8v-5.1c0-6.3-5.1-11.4-11.4-11.4
		h-97.7c-6.3,0-11.4,5.1-11.4,11.4v5.1H166c-4.8,0-9.1,2.4-11.7,6.5c-2.5,4-2.8,9-0.7,13.3l10.9,22.2c9.8,20,30.2,33.2,52.4,34.1
		c4.1,6.2,8.8,12.1,14.1,17.6v27.7h-8.2c-10.5,0-19.1,8.6-19.1,19.1v17.2h-10.6c-15.2,0-27.5,12.3-27.5,27.5v95.5
		c-3.8-1.9-8-3-12.5-3H42.5c-15.2,0-27.5,12.3-27.5,27.5v113.8c0,4.1,3.4,7.5,7.5,7.5s7.5-3.4,7.5-7.5V321.7
		c0-6.9,5.6-12.5,12.5-12.5h110.7c6.9,0,12.5,5.6,12.5,12.5V458H16.2C7.3,458,0,465.3,0,474.2v21.7c0,8.9,7.3,16.2,16.2,16.2h479.7
		c8.9,0,16.2-7.3,16.2-16.2v-21.7C512,465.6,505.4,458.7,497,458.1L497,458.1z M315.9,31.5h28.1l-10,20.4
		c-5.9,12.1-17,20.9-29.7,24.3C310.8,62.1,314.8,47,315.9,31.5z M178.1,51.8l-10-20.4h28.1c1.1,15.5,5.1,30.7,11.6,44.7
		C195,72.7,184,63.9,178.1,51.8z M210.8,15h90.4c0.7,31.3-8.8,61.6-30.9,84.6h-28.6C219.4,76.4,210.2,46.7,210.8,15L210.8,15z
		 M265.9,114.6v23.2h-19.9v-23.2L265.9,114.6z M218.8,157c0-2.3,1.8-4.1,4.1-4.1h66.2c2.3,0,4.1,1.8,4.1,4.1v17.2h-74.4L218.8,157
		L218.8,157z M180.7,201.7c0-6.9,5.6-12.5,12.5-12.5h125.7c6.9,0,12.5,5.6,12.5,12.5V458H180.7L180.7,201.7z M497,495.8
		c0,0.6-0.5,1.2-1.2,1.2H16.2c-0.6,0-1.2-0.5-1.2-1.2v-21.7c0-0.6,0.5-1.2,1.2-1.2h479.7c0.6,0,1.2,0.5,1.2,1.2L497,495.8L497,495.8
		z"/>
</g>
</svg>
