<?xml version="1.0" encoding="utf-8"?>
<!-- Generator: Adobe Illustrator 23.0.3, SVG Export Plug-In . SVG Version: 6.00 Build 0)  -->
<svg version="1.1" id="Calque_1" xmlns="http://www.w3.org/2000/svg" xmlns:xlink="http://www.w3.org/1999/xlink" x="0px" y="0px"
	 viewBox="0 0 512 512" style="enable-background:new 0 0 512 512;" xml:space="preserve">
<style type="text/css">
	.st0{fill:#FBB03C;}
</style>
<path class="st0" d="M499.5,53.1H472c-4.1,0-7.5,3.4-7.5,7.5c0,4.1,3.4,7.5,7.5,7.5h25v405.3H110c-4.1,0-7.5,3.4-7.5,7.5
	c0,4.1,3.4,7.5,7.5,7.5h389.5c6.9,0,12.5-5.6,12.5-12.5V65.6C512,58.7,506.4,53.1,499.5,53.1z"/>
<path class="st0" d="M74,473.4H15V68.1h80.6c1.1,1.4,2.6,2.6,4.4,3.6l39.4,21.4c5.2,2.8,13.6,5,19.5,5H403c8.8,0,16-7.2,16-16v-14
	h18c4.1,0,7.5-3.4,7.5-7.5c0-4.1-3.4-7.5-7.5-7.5h-18V39.9c0-8.8-7.2-15.9-16-15.9H158.8c-5.9,0-14.3,2.1-19.5,5L100,50.4
	c-1.4,0.8-2.6,1.7-3.6,2.7H12.5C5.6,53.1,0,58.7,0,65.6v410.3c0,6.9,5.6,12.5,12.5,12.5H74c4.1,0,7.5-3.4,7.5-7.5
	S78.1,473.4,74,473.4z M369.8,39H403c0.5,0,1,0.4,1,0.9v42.2c0,0.5-0.5,1-1,1h-33.2V39z M169.7,39h185.1v14.5H169.7V39z M169.7,68.5
	h185.1v14.5H169.7V68.5z M137.5,47l9-4.9c2-1.1,5.3-2.1,8.2-2.7v43.2c-3-0.6-6.2-1.6-8.3-2.7l-9-4.9V47z M122.5,55.2v11.7L111.8,61
	L122.5,55.2z"/>
<path class="st0" d="M256,449c28.3,0,53-18.3,61.3-45.6c1.2-4-1-8.2-5-9.4c-4-1.2-8.2,1-9.4,5c-6.4,20.9-25.3,35-47,35
	c-27.1,0-49.2-22.3-49.2-49.8s22.1-49.8,49.2-49.8c20.8,0,39.5,13.4,46.4,33.2c1.4,3.9,5.6,6,9.5,4.6c3.9-1.4,6-5.6,4.6-9.5
	c-9-25.9-33.4-43.3-60.6-43.3c-35.4,0-64.2,29.1-64.2,64.8C191.8,419.9,220.6,449,256,449z"/>
<path class="st0" d="M239.3,375.7v-5.9c0-4.1-3.4-7.5-7.5-7.5s-7.5,3.4-7.5,7.5v5.9c0,4.1,3.4,7.5,7.5,7.5
	C236,383.2,239.3,379.9,239.3,375.7z"/>
<path class="st0" d="M287.6,375.7v-5.9c0-4.1-3.4-7.5-7.5-7.5s-7.5,3.4-7.5,7.5v5.9c0,4.1,3.4,7.5,7.5,7.5
	C284.3,383.2,287.6,379.9,287.6,375.7z"/>
<path class="st0" d="M239.4,410.3h33.2c4.1,0,7.5-3.4,7.5-7.5c0-4.1-3.4-7.5-7.5-7.5h-33.2c-4.1,0-7.5,3.4-7.5,7.5
	C231.9,407,235.2,410.3,239.4,410.3z"/>
<path class="st0" d="M113.4,449c35.4,0,64.2-29.1,64.2-64.8c0-35.7-28.8-64.8-64.2-64.8c-35.4,0-64.2,29.1-64.2,64.8
	C49.2,419.9,78,449,113.4,449z M113.4,334.4c27.1,0,49.2,22.3,49.2,49.8c0,27.5-22.1,49.8-49.2,49.8s-49.2-22.3-49.2-49.8
	C64.2,356.8,86.3,334.4,113.4,334.4z"/>
<path class="st0" d="M89.3,383.2c4.1,0,7.5-3.4,7.5-7.5v-5.9c0-4.1-3.4-7.5-7.5-7.5c-4.1,0-7.5,3.4-7.5,7.5v5.9
	C81.8,379.9,85.2,383.2,89.3,383.2z"/>
<path class="st0" d="M137.6,383.2c4.1,0,7.5-3.4,7.5-7.5v-5.9c0-4.1-3.4-7.5-7.5-7.5c-4.1,0-7.5,3.4-7.5,7.5v5.9
	C130.1,379.9,133.4,383.2,137.6,383.2z"/>
<path class="st0" d="M87.9,397.9c0,13.1,11.5,23.8,25.6,23.8c14.1,0,25.6-10.7,25.6-23.8c0-4.1-3.4-7.5-7.5-7.5s-7.5,3.4-7.5,7.5
	c0,4.8-4.7,8.8-10.6,8.8c-5.8,0-10.6-3.9-10.6-8.8c0-4.1-3.4-7.5-7.5-7.5C91.2,390.4,87.9,393.8,87.9,397.9z"/>
<path class="st0" d="M398.6,449c35.4,0,64.2-29.1,64.2-64.8c0-35.7-28.8-64.8-64.2-64.8c-35.4,0-64.2,29.1-64.2,64.8
	C334.3,419.9,363.1,449,398.6,449z M398.6,334.4c27.1,0,49.2,22.3,49.2,49.8c0,27.5-22.1,49.8-49.2,49.8
	c-27.1,0-49.2-22.3-49.2-49.8C349.3,356.8,371.4,334.4,398.6,334.4z"/>
<path class="st0" d="M374.4,383.2c4.1,0,7.5-3.4,7.5-7.5v-5.9c0-4.1-3.4-7.5-7.5-7.5c-4.1,0-7.5,3.4-7.5,7.5v5.9
	C366.9,379.9,370.3,383.2,374.4,383.2z"/>
<path class="st0" d="M422.7,383.2c4.1,0,7.5-3.4,7.5-7.5v-5.9c0-4.1-3.4-7.5-7.5-7.5s-7.5,3.4-7.5,7.5v5.9
	C415.2,379.9,418.6,383.2,422.7,383.2z"/>
<path class="st0" d="M373,411c0,4.1,3.4,7.5,7.5,7.5c4.1,0,7.5-3.4,7.5-7.5c0-4.8,4.7-8.8,10.6-8.8c5.8,0,10.6,3.9,10.6,8.8
	c0,4.1,3.4,7.5,7.5,7.5s7.5-3.4,7.5-7.5c0-13.1-11.5-23.8-25.6-23.8C384.5,387.2,373,397.9,373,411z"/>
<path class="st0" d="M59.7,197h52c5.8,0,10.5-4.7,10.5-10.5v-43.3l3-3c2.9-2.9,2.9-7.7,0-10.6c-1.5-1.5-3.5-2.2-5.5-2.2
	c-1.9-2.2-4.8-3.7-7.9-3.7h-52c-5.8,0-10.5,4.7-10.5,10.5v52.2C49.2,192.3,53.9,197,59.7,197z M64.2,138.8h41.2l-18.4,18.5l-6.1-6.1
	c-2.9-2.9-7.7-3-10.6,0c-2.9,2.9-3,7.7,0,10.6l9.3,9.3c2,2,4.6,3.1,7.4,3.1h0c2.8,0,5.5-1.1,7.4-3.1l12.7-12.8V182h-43V138.8z"/>
<path class="st0" d="M145.8,155.6h89.4c4.1,0,7.5-3.4,7.5-7.5s-3.4-7.5-7.5-7.5h-89.4c-4.1,0-7.5,3.4-7.5,7.5
	C138.3,152.2,141.7,155.6,145.8,155.6z"/>
<path class="st0" d="M145.8,180.1h50.9c4.1,0,7.5-3.4,7.5-7.5c0-4.1-3.4-7.5-7.5-7.5h-50.9c-4.1,0-7.5,3.4-7.5,7.5
	C138.3,176.8,141.7,180.1,145.8,180.1z"/>
<path class="st0" d="M49.2,281.7c0,5.8,4.7,10.5,10.5,10.5h52c5.8,0,10.5-4.7,10.5-10.5v-52.2c0-5.8-4.7-10.5-10.5-10.5h-52
	c-5.8,0-10.5,4.7-10.5,10.5V281.7z M64.2,234h43v43.2h-43V234z"/>
<path class="st0" d="M145.8,250.8h89.4c4.1,0,7.5-3.4,7.5-7.5c0-4.1-3.4-7.5-7.5-7.5h-89.4c-4.1,0-7.5,3.4-7.5,7.5
	C138.3,247.5,141.7,250.8,145.8,250.8z"/>
<path class="st0" d="M204.2,267.9c0-4.1-3.4-7.5-7.5-7.5h-50.9c-4.1,0-7.5,3.4-7.5,7.5c0,4.1,3.4,7.5,7.5,7.5h50.9
	C200.8,275.4,204.2,272,204.2,267.9z"/>
<path class="st0" d="M279.8,197h52c5.8,0,10.5-4.7,10.5-10.5v-52.2c0-5.8-4.7-10.5-10.5-10.5h-52c-5.8,0-10.5,4.7-10.5,10.5v52.2
	C269.3,192.3,274.1,197,279.8,197z M284.3,138.8h43V182h-43V138.8z"/>
<path class="st0" d="M358.4,148.1c0,4.1,3.4,7.5,7.5,7.5h89.4c4.1,0,7.5-3.4,7.5-7.5s-3.4-7.5-7.5-7.5h-89.4
	C361.8,140.6,358.4,143.9,358.4,148.1z"/>
<path class="st0" d="M365.9,180.1h50.9c4.1,0,7.5-3.4,7.5-7.5c0-4.1-3.4-7.5-7.5-7.5h-50.9c-4.1,0-7.5,3.4-7.5,7.5
	C358.4,176.8,361.8,180.1,365.9,180.1z"/>
<path class="st0" d="M342.3,281.7v-52.2c0-5.8-4.7-10.5-10.5-10.5h-52c-5.8,0-10.5,4.7-10.5,10.5v52.2c0,5.8,4.7,10.5,10.5,10.5h52
	C337.6,292.2,342.3,287.5,342.3,281.7z M327.3,277.2h-43V234h43V277.2z"/>
<path class="st0" d="M455.3,235.8h-89.4c-4.1,0-7.5,3.4-7.5,7.5c0,4.1,3.4,7.5,7.5,7.5h89.4c4.1,0,7.5-3.4,7.5-7.5
	C462.8,239.2,459.4,235.8,455.3,235.8z"/>
<path class="st0" d="M416.8,275.4c4.1,0,7.5-3.4,7.5-7.5c0-4.1-3.4-7.5-7.5-7.5h-50.9c-4.1,0-7.5,3.4-7.5,7.5c0,4.1,3.4,7.5,7.5,7.5
	H416.8z"/>
</svg>
