<?xml version="1.0" encoding="utf-8"?>
<!-- Generator: Adobe Illustrator 23.0.3, SVG Export Plug-In . SVG Version: 6.00 Build 0)  -->
<svg version="1.1" id="Capa_1" xmlns="http://www.w3.org/2000/svg" xmlns:xlink="http://www.w3.org/1999/xlink" x="0px" y="0px"
	 viewBox="0 0 512 512" style="enable-background:new 0 0 512 512;" xml:space="preserve">
<style type="text/css">
	.st0{fill:#FBB03C;}
</style>
<g>
	<g>
		<path class="st0" d="M456,43c-5.5,0-10,4.5-10,10s4.5,10,10,10s10-4.5,10-10S461.5,43,456,43z"/>
	</g>
</g>
<g>
	<g>
		<path class="st0" d="M396,43c-5.5,0-10,4.5-10,10s4.5,10,10,10s10-4.5,10-10S401.5,43,396,43z"/>
	</g>
</g>
<g>
	<g>
		<path class="st0" d="M336,43c-5.5,0-10,4.5-10,10s4.5,10,10,10s10-4.5,10-10S341.5,43,336,43z"/>
	</g>
</g>
<g>
	<g>
		<path class="st0" d="M276,309c-5.5,0-10,4.5-10,10s4.5,10,10,10s10-4.5,10-10S281.5,309,276,309z"/>
	</g>
</g>
<g>
	<g>
		<path class="st0" d="M276,369c-5.5,0-10,4.5-10,10s4.5,10,10,10s10-4.5,10-10S281.5,369,276,369z"/>
	</g>
</g>
<g>
	<g>
		<path class="st0" d="M276,429c-5.5,0-10,4.5-10,10s4.5,10,10,10s10-4.5,10-10S281.5,429,276,429z"/>
	</g>
</g>
<g>
	<g>
		<path class="st0" d="M482,0H30C13.5,0,0,13.5,0,30v452c0,16.5,13.5,30,30,30h452c16.5,0,30-13.5,30-30V30C512,13.5,498.5,0,482,0z
			 M492,482c0,5.5-4.5,10-10,10H30c-5.5,0-10-4.5-10-10V106h472V482z M492,86H20V30c0-5.5,4.5-10,10-10h452c5.5,0,10,4.5,10,10V86z"
			/>
	</g>
</g>
<g>
	<g>
		<path class="st0" d="M436,146H76c0,0-0.1,0-0.1,0c-0.2,0-0.5,0-0.7,0c-0.1,0-0.2,0-0.3,0c-0.2,0-0.4,0.1-0.6,0.1
			c-0.1,0-0.3,0-0.4,0.1c-0.2,0-0.3,0.1-0.5,0.1c-0.2,0-0.3,0.1-0.4,0.1c-0.1,0-0.3,0.1-0.4,0.2c-0.2,0.1-0.3,0.1-0.5,0.2
			c-0.1,0.1-0.3,0.1-0.4,0.2c-0.2,0.1-0.3,0.2-0.5,0.2c-0.1,0.1-0.3,0.2-0.4,0.2c-0.1,0.1-0.3,0.2-0.4,0.3c-0.1,0.1-0.3,0.2-0.4,0.3
			c-0.1,0.1-0.2,0.2-0.3,0.2c-0.2,0.1-0.3,0.3-0.5,0.4c-0.1,0.1-0.2,0.1-0.2,0.2c-0.2,0.2-0.3,0.3-0.4,0.5c-0.1,0.1-0.1,0.2-0.2,0.2
			c-0.1,0.2-0.3,0.3-0.4,0.5c-0.1,0.1-0.1,0.2-0.2,0.3c-0.1,0.1-0.2,0.3-0.3,0.5c-0.1,0.1-0.2,0.3-0.2,0.4c-0.1,0.1-0.1,0.3-0.2,0.4
			c-0.1,0.2-0.2,0.3-0.2,0.5c0,0.1-0.1,0.2-0.1,0.4c-0.1,0.2-0.1,0.4-0.2,0.6c0,0,0,0.1,0,0.1c0,0.1,0,0.2-0.1,0.3
			c0,0.2-0.1,0.4-0.1,0.6c0,0.2-0.1,0.3-0.1,0.5c0,0.2,0,0.3-0.1,0.5c0,0.2,0,0.4,0,0.6c0,0.1,0,0.2,0,0.3v100c0,5.5,4.5,10,10,10
			h360c0,0,0,0,0,0c0.3,0,0.6,0,1-0.1c0.1,0,0.1,0,0.2,0c0.2,0,0.5-0.1,0.7-0.1c0.1,0,0.2,0,0.3-0.1c0.2,0,0.4-0.1,0.6-0.1
			c0.1,0,0.2-0.1,0.3-0.1c0.2-0.1,0.4-0.1,0.6-0.2c0.1,0,0.2-0.1,0.3-0.1c0.3-0.1,0.5-0.2,0.8-0.4c0.1-0.1,0.2-0.1,0.3-0.2
			c0.2-0.1,0.3-0.2,0.5-0.3c0.1-0.1,0.2-0.1,0.3-0.2c0.2-0.1,0.3-0.2,0.5-0.3c0.1-0.1,0.2-0.1,0.2-0.2c0.2-0.1,0.3-0.3,0.5-0.5
			c0,0,0.1-0.1,0.1-0.1c0.4-0.4,0.8-0.9,1.2-1.4c0,0,0.1-0.1,0.1-0.1c0.1-0.2,0.3-0.4,0.4-0.6c0.1-0.1,0.1-0.2,0.2-0.3
			c0.1-0.2,0.2-0.3,0.2-0.5c0.1-0.1,0.1-0.3,0.2-0.4c0.1-0.1,0.1-0.3,0.2-0.5c0-0.1,0.1-0.3,0.1-0.4c0,0,0-0.1,0-0.1
			c0-0.1,0-0.2,0.1-0.3c0-0.2,0.1-0.4,0.1-0.6c0-0.2,0.1-0.3,0.1-0.5c0-0.2,0-0.3,0.1-0.5c0-0.2,0-0.4,0-0.6c0-0.1,0-0.2,0-0.3V156
			C446,150.5,441.5,146,436,146z M86,246v-76.8L362.6,246H86z M426,242.8L149.4,166H426V242.8z"/>
	</g>
</g>
<g>
	<g>
		<path class="st0" d="M216,309H76c-0.1,0-0.2,0-0.3,0c-0.2,0-0.4,0-0.6,0c-0.2,0-0.3,0-0.5,0.1c-0.2,0-0.3,0-0.5,0.1
			c-0.2,0-0.3,0.1-0.5,0.1c-0.1,0-0.3,0.1-0.4,0.1c-0.2,0-0.3,0.1-0.5,0.2c-0.1,0.1-0.3,0.1-0.4,0.2c-0.2,0.1-0.3,0.1-0.4,0.2
			c-0.2,0.1-0.3,0.1-0.4,0.2c-0.1,0.1-0.3,0.1-0.4,0.2c-0.2,0.1-0.3,0.2-0.5,0.3c-0.1,0.1-0.2,0.2-0.4,0.3c-0.1,0.1-0.3,0.2-0.4,0.3
			c-0.1,0.1-0.2,0.2-0.4,0.3c-0.1,0.1-0.2,0.2-0.4,0.3c-0.1,0.1-0.3,0.3-0.4,0.4c-0.1,0.1-0.2,0.2-0.2,0.2c0,0,0,0-0.1,0.1
			c-0.1,0.2-0.2,0.3-0.4,0.5c-0.1,0.1-0.2,0.2-0.2,0.3c-0.1,0.2-0.2,0.3-0.3,0.5c-0.1,0.1-0.2,0.2-0.2,0.4c-0.1,0.1-0.2,0.3-0.2,0.5
			c-0.1,0.1-0.1,0.3-0.2,0.4c-0.1,0.1-0.1,0.3-0.2,0.4c-0.1,0.2-0.1,0.3-0.2,0.5c0,0.1-0.1,0.3-0.1,0.4c0,0.2-0.1,0.4-0.1,0.5
			c0,0.1,0,0.3-0.1,0.4c0,0.2-0.1,0.4-0.1,0.6c0,0.1,0,0.3,0,0.4c0,0.2,0,0.4,0,0.6c0,0,0,0.1,0,0.1v120c0,5.5,4.5,10,10,10h140
			c0.4,0,0.7,0,1-0.1c0,0,0,0,0.1,0c0.3,0,0.6-0.1,1-0.2c0.1,0,0.1,0,0.2,0c0.3-0.1,0.5-0.1,0.8-0.2c0.1,0,0.2-0.1,0.3-0.1
			c0.2-0.1,0.4-0.2,0.6-0.2c0.1-0.1,0.2-0.1,0.4-0.2c0.2-0.1,0.4-0.2,0.5-0.3c0.1-0.1,0.3-0.2,0.4-0.2c0.2-0.1,0.3-0.2,0.5-0.3
			c0.1-0.1,0.3-0.2,0.4-0.3c0.2-0.1,0.3-0.2,0.4-0.4c0.1-0.1,0.2-0.2,0.3-0.3c0.2-0.2,0.3-0.3,0.5-0.5c0.1-0.1,0.1-0.1,0.2-0.2
			c0,0,0,0,0.1-0.1c0.1-0.2,0.2-0.3,0.4-0.5c0.1-0.1,0.2-0.2,0.2-0.3c0.1-0.2,0.2-0.3,0.3-0.5c0.1-0.1,0.2-0.2,0.2-0.4
			c0.1-0.1,0.2-0.3,0.2-0.5c0.1-0.1,0.1-0.3,0.2-0.4c0.1-0.1,0.1-0.3,0.2-0.4c0.1-0.2,0.1-0.3,0.2-0.5c0-0.1,0.1-0.3,0.1-0.4
			c0-0.2,0.1-0.4,0.1-0.5c0-0.1,0-0.3,0.1-0.4c0-0.2,0.1-0.4,0.1-0.6c0-0.1,0-0.3,0-0.4c0-0.2,0-0.4,0-0.6c0,0,0-0.1,0-0.1V319
			C226,313.5,221.5,309,216,309z M86,429v-88.3L189,429H86z M206,417.3L103,329h103V417.3z"/>
	</g>
</g>
<g>
	<g>
		<path class="st0" d="M436,309H316c-5.5,0-10,4.5-10,10s4.5,10,10,10h120c5.5,0,10-4.5,10-10S441.5,309,436,309z"/>
	</g>
</g>
<g>
	<g>
		<path class="st0" d="M436,369H316c-5.5,0-10,4.5-10,10s4.5,10,10,10h120c5.5,0,10-4.5,10-10S441.5,369,436,369z"/>
	</g>
</g>
<g>
	<g>
		<path class="st0" d="M436,429H316c-5.5,0-10,4.5-10,10s4.5,10,10,10h120c5.5,0,10-4.5,10-10S441.5,429,436,429z"/>
	</g>
</g>
</svg>
